<svg xmlns="http://www.w3.org/2000/svg" version="1.1" xmlns:xlink="http://www.w3.org/1999/xlink" width="512" height="512" x="0" y="0" viewBox="0 0 4335 4335" style="enable-background:new 0 0 512 512" xml:space="preserve" fill-rule="evenodd" class=""><g><path d="M2113 1542c61 0 121 7 177 20 27-122 108-286 315-473 0 0 243 464 142 853 16 47 25 97 25 149 0 232-172 430-416 511 114 187 332 445 411 811 13 59 23 115 30 168 539-273 909-833 909-1479 0-915-742-1657-1657-1657-381 0-732 129-1011 345-171 149-260 241-286 269l-9 9c-30 30-70 48-115 48-90 0-163-73-163-163 0-40 15-77 39-105h-2c365-450 923-737 1548-737 1101 0 1993 892 1993 1993 0 837-516 1554-1248 1849-38 168-141 268-322 277-175 9-296 9-372 6-75 3-196 3-372-6-330-17-399-330-295-815 78-366 297-624 411-811-244-81-416-279-416-511 0-52 9-102 25-149-101-389 142-853 142-853 207 187 288 351 315 473 56-13 116-20 177-20z" fill="#000000" opacity="1" data-original="#000000" class=""></path></g></svg>